<?xml version="1.0" standalone="no"?>
<!DOCTYPE svg PUBLIC "-//W3C//DTD SVG 20010904//EN"
 "http://www.w3.org/TR/2001/REC-SVG-20010904/DTD/svg10.dtd">
<svg version="1.0" xmlns="http://www.w3.org/2000/svg"
 width="512.000000pt" height="512.000000pt" viewBox="0 0 512.000000 512.000000"
 preserveAspectRatio="xMidYMid meet">

<g transform="translate(0.000000,512.000000) scale(0.100000,-0.100000)"
fill="#000000" stroke="none">
<path d="M2257 5105 c-230 -29 -456 -87 -659 -170 -130 -54 -242 -110 -266
-133 -10 -9 -34 -28 -55 -42 -20 -14 -37 -29 -37 -33 0 -5 7 -33 16 -63 24
-85 15 -93 -55 -44 l-59 41 -50 -35 c-27 -20 -59 -36 -72 -36 -31 0 -145 -97
-145 -124 0 -19 6 -21 73 -24 88 -4 92 -15 22 -67 -54 -40 -58 -51 -35 -116
15 -43 14 -69 -3 -69 -5 0 -30 16 -55 35 -25 19 -51 35 -56 35 -6 0 -33 -16
-60 -35 -74 -53 -85 -46 -56 35 8 23 15 52 15 64 -1 23 -31 -8 -146 -146 l-56
-67 16 -56 17 -55 69 0 c83 0 97 -13 50 -49 -19 -14 -45 -35 -57 -46 l-24 -20
20 -59 c31 -87 17 -97 -59 -41 -26 19 -51 35 -54 35 -4 0 -28 -16 -53 -35 -75
-57 -87 -46 -56 51 9 30 14 57 10 60 -13 13 -35 -18 -97 -137 -55 -107 -61
-125 -53 -153 8 -30 10 -31 78 -36 89 -6 95 -23 25 -71 -27 -19 -50 -40 -50
-48 0 -8 8 -38 17 -68 23 -75 10 -82 -59 -33 l-57 41 -44 -32 c-41 -28 -46
-38 -65 -108 -33 -122 -92 -464 -92 -536 0 -6 27 -9 73 -7 l74 3 19 62 c13 38
26 62 35 62 8 0 23 -24 35 -60 l21 -60 69 -5 c87 -6 92 -22 24 -70 -27 -19
-50 -41 -50 -49 0 -8 8 -38 17 -68 24 -75 10 -83 -57 -33 -29 22 -55 40 -58
40 -2 0 -29 -18 -59 -40 -31 -22 -60 -37 -65 -34 -10 6 -8 17 16 96 l15 47
-55 41 -55 41 3 -158 3 -158 2550 3 c1403 2 2552 6 2555 9 8 7 12 293 5 340
l-6 43 -1180 0 -1179 0 0 195 0 195 1150 0 c645 0 1150 4 1150 9 0 15 -59 206
-91 295 l-31 86 -1089 0 -1089 0 0 200 0 200 980 0 c539 0 980 2 980 6 0 20
-171 244 -253 332 l-50 52 -828 0 -829 0 0 200 0 200 581 2 582 3 -109 61
c-265 149 -549 246 -881 300 -136 22 -523 27 -666 9z m-431 -201 l21 -59 69
-5 c88 -6 94 -23 24 -71 -27 -19 -50 -40 -50 -48 0 -8 8 -38 17 -68 24 -78 9
-86 -61 -33 l-55 42 -57 -41 c-71 -51 -85 -44 -61 32 9 30 17 60 17 68 0 8
-23 29 -51 48 -69 47 -63 65 25 71 67 5 70 6 79 35 21 66 37 97 49 93 7 -3 23
-31 34 -64z m648 -2 l20 -62 67 0 c101 0 101 -12 1 -90 l-33 -25 22 -63 c29
-85 17 -97 -48 -50 -26 19 -53 38 -59 41 -6 4 -35 -11 -64 -33 -71 -53 -87
-43 -59 37 10 31 19 60 19 64 0 5 -25 27 -55 49 -72 54 -67 70 25 70 l68 0 22
66 c28 83 46 83 74 -4z m-967 -402 l18 -55 69 -5 c39 -3 71 -10 73 -16 2 -7
-11 -22 -29 -35 -18 -12 -43 -31 -54 -41 l-22 -19 19 -61 c28 -89 15 -99 -58
-43 -25 19 -50 35 -56 35 -5 0 -31 -16 -57 -35 -76 -55 -90 -46 -60 40 11 32
20 61 20 65 0 4 -25 24 -55 45 -31 21 -54 43 -52 49 2 6 32 12 67 14 36 2 70
7 76 13 6 5 17 31 24 57 23 91 45 89 77 -8z m643 5 l22 -65 68 0 c97 0 100
-11 17 -70 -52 -37 -51 -31 -22 -123 19 -65 2 -71 -64 -23 -27 20 -53 36 -58
36 -6 0 -31 -16 -56 -35 -74 -56 -89 -43 -58 48 l20 57 -52 41 c-29 23 -52 47
-52 53 0 7 28 13 70 16 l70 5 20 55 c36 100 43 100 75 5z m-970 -440 l22 -65
68 0 c91 0 98 -17 25 -67 -30 -21 -54 -43 -55 -49 0 -6 9 -37 20 -68 25 -74
10 -82 -64 -31 l-54 37 -50 -36 c-47 -34 -82 -46 -82 -28 0 5 9 35 20 68 l21
59 -24 20 c-14 11 -40 31 -58 46 -46 35 -32 49 50 49 l68 0 12 42 c34 112 50
116 81 23z m646 0 l21 -60 69 -5 c87 -6 93 -22 24 -69 -54 -37 -58 -47 -35
-111 29 -82 13 -90 -65 -34 l-50 36 -50 -36 c-78 -56 -94 -48 -65 34 23 64 19
74 -35 111 -69 47 -63 63 25 69 l69 5 20 63 c25 79 43 78 72 -3z m648 -2 l20
-62 69 -3 c43 -2 72 -8 74 -15 2 -6 -21 -30 -51 -53 l-55 -41 15 -47 c27 -89
28 -92 9 -92 -10 0 -40 16 -67 36 l-50 35 -53 -37 c-31 -21 -60 -34 -69 -31
-13 5 -13 13 4 63 11 31 20 62 20 68 -1 6 -25 28 -55 49 -73 50 -66 67 25 67
l68 0 22 66 c28 83 46 83 74 -3z m-1618 -429 l21 -59 69 -5 c88 -6 94 -24 25
-71 -28 -19 -51 -40 -51 -48 0 -8 8 -38 17 -68 24 -76 9 -87 -55 -39 -27 20
-55 36 -62 36 -7 0 -35 -16 -62 -36 -65 -46 -79 -36 -55 39 9 30 17 59 17 65
0 6 -23 29 -50 49 -69 51 -63 67 24 73 67 5 70 6 79 35 21 66 37 97 49 93 7
-3 23 -31 34 -64z m648 -2 l20 -61 70 -3 c91 -4 95 -19 21 -72 -31 -22 -54
-45 -52 -50 51 -139 44 -156 -38 -97 l-57 40 -56 -39 c-73 -53 -89 -43 -61 37
10 31 19 60 19 64 0 5 -25 27 -56 49 -69 52 -62 68 34 72 l66 3 14 50 c27 95
47 97 76 7z m624 56 c5 -7 17 -35 25 -63 l14 -50 66 -3 c95 -4 102 -20 33 -72
-31 -24 -56 -46 -56 -50 0 -4 9 -32 19 -62 28 -82 15 -91 -57 -41 l-59 42 -57
-41 c-74 -53 -86 -43 -57 44 l22 63 -27 20 c-60 44 -87 72 -80 83 4 7 35 12
76 12 l69 0 11 41 c24 89 35 104 58 77z m-1593 -486 l20 -57 70 -1 c90 -2 95
-18 20 -68 -61 -40 -60 -38 -28 -130 20 -60 3 -65 -63 -17 l-57 41 -56 -40
c-80 -57 -84 -47 -44 92 3 11 -11 28 -46 53 -70 51 -67 65 13 65 70 0 77 4 96
65 29 93 41 93 75 -3z m623 66 c5 -7 16 -35 24 -63 l14 -50 66 -3 c96 -4 103
-20 34 -72 -31 -24 -56 -46 -56 -50 0 -4 9 -32 19 -62 28 -80 15 -91 -52 -45
-29 20 -59 37 -66 37 -7 0 -33 -16 -58 -35 -25 -19 -50 -35 -55 -35 -18 0 -18
28 2 84 11 33 20 60 20 61 0 1 -25 19 -55 41 -80 57 -72 74 34 74 l58 0 12 42
c28 91 37 103 59 76z m667 -56 l19 -62 57 0 c105 0 114 -17 39 -73 -27 -21
-50 -43 -50 -49 0 -6 8 -35 17 -65 24 -76 9 -87 -55 -39 -27 20 -55 36 -62 36
-7 0 -35 -16 -62 -36 -64 -48 -79 -37 -55 39 9 30 17 59 17 65 0 7 -22 28 -50
48 -76 54 -66 71 44 76 45 3 50 6 59 33 21 66 37 97 49 93 7 -2 22 -32 33 -66z
m648 0 l18 -62 59 0 c108 0 116 -19 35 -75 -30 -20 -55 -38 -55 -40 0 -1 9
-28 20 -61 20 -56 20 -84 2 -84 -5 0 -30 16 -55 35 -25 19 -52 35 -60 35 -8 0
-35 -16 -60 -35 -72 -55 -85 -44 -55 44 10 30 18 57 18 61 0 4 -25 26 -56 50
-69 52 -62 68 34 72 63 3 66 4 75 33 21 66 37 97 49 93 7 -3 21 -32 31 -66z
m-1617 -438 l21 -59 69 -5 c88 -6 94 -23 24 -71 -27 -19 -50 -40 -50 -48 0 -8
8 -38 17 -68 24 -76 10 -83 -60 -33 l-57 41 -57 -41 c-70 -50 -84 -43 -60 33
9 30 17 60 17 68 0 8 -23 29 -50 48 -70 48 -64 65 24 71 67 5 70 6 79 35 21
66 37 97 49 93 7 -3 23 -31 34 -64z m648 -2 l20 -62 67 0 c101 0 101 -12 1
-90 l-33 -25 22 -63 c29 -85 17 -97 -48 -50 -26 19 -53 38 -59 41 -6 4 -35
-11 -64 -33 -71 -53 -87 -43 -59 37 10 31 19 60 19 64 0 5 -24 27 -54 49 -72
55 -67 70 24 70 l68 0 22 66 c28 83 46 83 74 -4z m646 3 l22 -65 68 0 c91 0
96 -15 24 -70 -30 -22 -54 -44 -54 -49 0 -4 9 -33 19 -64 28 -80 12 -90 -59
-37 -29 22 -58 37 -64 33 -6 -3 -33 -22 -59 -41 -65 -47 -77 -35 -48 50 l22
63 -33 25 c-100 78 -100 90 1 90 l68 0 12 42 c34 112 50 116 81 23z"/>
<path d="M70 1962 c0 -14 58 -215 73 -252 7 -19 22 -56 31 -82 l18 -48 2368 0
2368 0 31 86 c32 89 91 280 91 295 0 5 -1085 9 -2490 9 -1369 0 -2490 -4
-2490 -8z"/>
<path d="M410 1172 c0 -14 149 -213 225 -301 l70 -80 1851 -1 1851 0 50 52
c82 88 253 312 253 332 0 4 -967 6 -2150 6 -1182 0 -2150 -4 -2150 -8z"/>
<path d="M1210 386 c0 -8 179 -107 272 -150 205 -95 436 -166 683 -208 109
-18 169 -22 380 -22 262 -1 330 5 550 51 262 54 625 199 800 319 16 12 -190
14 -1333 14 -743 0 -1352 -2 -1352 -4z"/>
</g>
</svg>
