<svg width="113" height="131" viewBox="0 0 113 131" fill="none" xmlns="http://www.w3.org/2000/svg">
<path d="M3 97.07V33.93M3 97.07L56.5 128M3 97.07L29.75 50.035M3 97.07H56.5M3 97.07L29.75 80.965M56.5 3L3 33.93M56.5 3L29.75 50.035M56.5 3L83.25 50.035M56.5 3V33.7192M56.5 3L110 33.93M110 97.07V33.93M110 97.07L56.5 128M110 97.07L83.25 50.035M110 97.07H56.5M110 97.07L83.25 80.965M3 33.93L29.75 50.035M3 33.93L56.5 33.7192M3 33.93L29.75 80.965M110 33.93L83.25 50.035M110 33.93L56.5 33.7192M110 33.93L83.25 80.965M56.5 128L29.75 80.965M56.5 128L83.25 80.965M29.75 50.035H83.25M29.75 50.035L56.5 97.07M83.25 50.035L56.5 97.07M56.5 33.7192L29.75 80.965M56.5 33.7192L83.25 80.965M29.75 80.965H83.25" stroke="#1C8C6E" stroke-width="5"/>
</svg>
