<svg width="574" height="149" viewBox="0 0 574 149" fill="none" xmlns="http://www.w3.org/2000/svg">
<path d="M3 106.07V42.93M3 106.07L56.5 137M3 106.07L29.75 59.035M3 106.07H56.5M3 106.07L29.75 89.965M56.5 12L3 42.93M56.5 12L29.75 59.035M56.5 12L83.25 59.035M56.5 12V42.7192M56.5 12L110 42.93M110 106.07V42.93M110 106.07L56.5 137M110 106.07L83.25 59.035M110 106.07H56.5M110 106.07L83.25 89.965M3 42.93L29.75 59.035M3 42.93L56.5 42.7192M3 42.93L29.75 89.965M110 42.93L83.25 59.035M110 42.93L56.5 42.7192M110 42.93L83.25 89.965M56.5 137L29.75 89.965M56.5 137L83.25 89.965M29.75 59.035H83.25M29.75 59.035L56.5 106.07M83.25 59.035L56.5 106.07M56.5 42.7192L29.75 89.965M56.5 42.7192L83.25 89.965M29.75 89.965H83.25" stroke="#1C8C6E" stroke-width="5"/>
<path d="M135.461 118V111.06L144.439 109.518V46.3434L135.461 44.8012V37.8063H164.267V44.8012L155.289 46.3434V74.0477H193.624V46.3434L184.646 44.8012V37.8063H193.624H204.474H213.452V44.8012L204.474 46.3434V109.518L213.452 111.06V118H184.646V111.06L193.624 109.518V82.5848H155.289V109.518L164.267 111.06V118H135.461ZM249.143 119.157C243.635 119.157 238.843 117.908 234.767 115.411C230.691 112.878 227.534 109.371 225.294 104.891C223.091 100.412 221.989 95.2344 221.989 89.3594V86.9359C221.989 81.2813 223.146 76.2324 225.459 71.7895C227.809 67.3098 230.912 63.7848 234.767 61.2145C238.659 58.6074 242.9 57.3039 247.49 57.3039C252.851 57.3039 257.331 58.4055 260.929 60.6086C264.564 62.8117 267.3 65.9145 269.136 69.9168C270.972 73.8824 271.89 78.5641 271.89 83.9617V90.7363H233.225L233.06 91.0117C233.133 94.8305 233.794 98.227 235.043 101.201C236.328 104.139 238.164 106.452 240.55 108.141C242.937 109.83 245.801 110.675 249.143 110.675C252.814 110.675 256.027 110.161 258.781 109.132C261.572 108.068 263.977 106.617 265.996 104.781L270.237 111.831C268.108 113.888 265.28 115.632 261.755 117.064C258.267 118.459 254.063 119.157 249.143 119.157ZM233.555 82.2543H261.039V80.8223C261.039 77.9582 260.525 75.4063 259.497 73.1664C258.506 70.8898 257 69.109 254.981 67.8238C252.998 66.502 250.501 65.841 247.49 65.841C245.067 65.841 242.864 66.557 240.881 67.9891C238.898 69.3844 237.264 71.2938 235.979 73.7172C234.694 76.1406 233.849 78.8945 233.445 81.9789L233.555 82.2543ZM278.609 118V111.06L285.219 109.793L303.009 87.8723L285.604 66.6672L279.711 65.4004V58.4055H303.064V65.4004L297.116 66.0613L309.343 81.2629L321.24 66.0063L314.851 65.4004V58.4055H337.818V65.4004L331.76 66.6672L315.622 87.707L334.183 109.793L340.352 111.06V118H315.071V111.06L322.231 110.454L309.178 94.5367L296.51 110.454L302.954 111.06V118H278.609ZM367.726 118.936C363.32 118.936 359.813 117.651 357.206 115.081C354.636 112.474 353.35 108.325 353.35 102.633V66.4469H343.932V58.4055H353.35V44.0301H364.201V58.4055H377.144V66.4469H364.201V102.633C364.201 105.497 364.77 107.609 365.908 108.967C367.046 110.326 368.57 111.005 370.48 111.005C371.765 111.005 373.197 110.895 374.776 110.675C376.355 110.418 377.585 110.197 378.466 110.014L379.953 117.119C378.374 117.596 376.428 118.018 374.115 118.386C371.838 118.753 369.709 118.936 367.726 118.936ZM412.945 119.157C407.437 119.157 402.645 117.908 398.57 115.411C394.494 112.878 391.336 109.371 389.096 104.891C386.893 100.412 385.791 95.2344 385.791 89.3594V86.9359C385.791 81.2813 386.948 76.2324 389.261 71.7895C391.611 67.3098 394.714 63.7848 398.57 61.2145C402.462 58.6074 406.703 57.3039 411.293 57.3039C416.653 57.3039 421.133 58.4055 424.732 60.6086C428.367 62.8117 431.102 65.9145 432.938 69.9168C434.774 73.8824 435.692 78.5641 435.692 83.9617V90.7363H397.027L396.862 91.0117C396.936 94.8305 397.596 98.227 398.845 101.201C400.13 104.139 401.966 106.452 404.353 108.141C406.739 109.83 409.603 110.675 412.945 110.675C416.617 110.675 419.83 110.161 422.584 109.132C425.374 108.068 427.779 106.617 429.799 104.781L434.04 111.831C431.91 113.888 429.083 115.632 425.558 117.064C422.07 118.459 417.865 119.157 412.945 119.157ZM397.358 82.2543H424.842V80.8223C424.842 77.9582 424.328 75.4063 423.3 73.1664C422.308 70.8898 420.803 69.109 418.783 67.8238C416.8 66.502 414.303 65.841 411.293 65.841C408.869 65.841 406.666 66.557 404.683 67.9891C402.7 69.3844 401.066 71.2938 399.781 73.7172C398.496 76.1406 397.652 78.8945 397.248 81.9789L397.358 82.2543ZM473.311 119.157C467.913 119.157 463.213 117.908 459.211 115.411C455.208 112.878 452.105 109.371 449.902 104.891C447.699 100.412 446.598 95.2344 446.598 89.3594V87.0461C446.598 81.3914 447.662 76.3242 449.792 71.8445C451.922 67.3648 454.988 63.8215 458.99 61.2145C462.993 58.6074 467.766 57.3039 473.311 57.3039C478.121 57.3039 482.325 58.0934 485.923 59.6723C489.559 61.2512 492.606 63.4176 495.066 66.1715L495.342 80.4918H486.86L484.987 70.082C483.739 68.7969 482.178 67.7688 480.305 66.9977C478.433 66.2266 476.23 65.841 473.696 65.841C470.465 65.841 467.619 66.7957 465.159 68.7051C462.736 70.6145 460.845 73.1664 459.486 76.3609C458.127 79.5555 457.448 83.1172 457.448 87.0461V89.3594C457.448 93.6922 458.072 97.4559 459.321 100.65C460.606 103.845 462.423 106.323 464.773 108.086C467.16 109.812 469.987 110.675 473.255 110.675C476.927 110.675 479.975 109.665 482.398 107.645C484.822 105.626 486.309 102.854 486.86 99.3285H496.609L496.719 99.659C496.535 103.074 495.525 106.268 493.689 109.243C491.853 112.217 489.228 114.622 485.813 116.458C482.435 118.257 478.268 119.157 473.311 119.157ZM503.824 118V111.06L512.802 109.518V40.6152L503.824 39.0731V32.0781H523.652V66.3367C525.708 63.4727 528.223 61.2512 531.198 59.6723C534.172 58.0934 537.477 57.3039 541.112 57.3039C547.501 57.3039 552.458 59.2133 555.983 63.032C559.508 66.8508 561.27 72.7258 561.27 80.657V109.518L570.248 111.06V118H541.442V111.06L550.42 109.518V80.5469C550.42 75.6266 549.355 71.9914 547.225 69.6414C545.132 67.2914 541.993 66.1164 537.807 66.1164C534.833 66.1164 532.116 66.8324 529.655 68.2645C527.232 69.6598 525.231 71.5691 523.652 73.9926V109.518L532.63 111.06V118H503.824Z" fill="white"/>
<path d="M238.206 40V37.6502L241.246 37.128V15.6251H235.091L234.55 19.3923H231.79V12.8464H254.356V19.3923H251.633L251.074 15.6251H244.92V37.128L247.959 37.6502V40H238.206ZM257.135 40V37.6502L260.175 37.128V13.7975L257.135 13.2753V10.9068H263.849V22.5068C264.545 21.537 265.397 20.7848 266.404 20.2502C267.411 19.7156 268.53 19.4483 269.761 19.4483C271.924 19.4483 273.602 20.0948 274.796 21.3878C275.99 22.6809 276.586 24.6701 276.586 27.3557V37.128L279.626 37.6502V40H269.873V37.6502L272.912 37.128V27.3184C272.912 25.6523 272.552 24.4215 271.831 23.6258C271.122 22.83 270.059 22.4322 268.642 22.4322C267.635 22.4322 266.715 22.6746 265.882 23.1595C265.061 23.632 264.383 24.2785 263.849 25.0991V37.128L266.889 37.6502V40H257.135ZM291.04 40.3916C289.175 40.3916 287.552 39.9689 286.172 39.1235C284.792 38.2656 283.723 37.0782 282.965 35.5614C282.219 34.0446 281.846 32.2915 281.846 30.3023V29.4817C281.846 27.567 282.237 25.8575 283.02 24.3531C283.816 22.8363 284.867 21.6427 286.172 20.7724C287.49 19.8896 288.926 19.4483 290.48 19.4483C292.295 19.4483 293.812 19.8213 295.031 20.5672C296.262 21.3132 297.188 22.3638 297.809 23.719C298.431 25.0618 298.742 26.647 298.742 28.4746V30.7685H285.65L285.594 30.8618C285.619 32.1548 285.843 33.3048 286.265 34.3119C286.701 35.3065 287.322 36.0898 288.13 36.6617C288.939 37.2337 289.908 37.5196 291.04 37.5196C292.283 37.5196 293.371 37.3456 294.303 36.9974C295.248 36.6369 296.063 36.1458 296.746 35.5241L298.182 37.9113C297.461 38.6075 296.504 39.1981 295.31 39.683C294.129 40.1554 292.706 40.3916 291.04 40.3916ZM285.762 27.8965H295.068V27.4116C295.068 26.4418 294.894 25.5777 294.546 24.8193C294.21 24.0485 293.7 23.4455 293.017 23.0103C292.345 22.5627 291.5 22.3389 290.48 22.3389C289.66 22.3389 288.914 22.5814 288.242 23.0663C287.571 23.5387 287.018 24.1852 286.583 25.0058C286.147 25.8264 285.861 26.7589 285.725 27.8032L285.762 27.8965Z" fill="white"/>
</svg>
