<svg width="66" height="66" viewBox="0 0 66 66" fill="none" xmlns="http://www.w3.org/2000/svg">
<path d="M34.5 44.8136V33.1882L45 27.4705V39.7447L34.5 44.8136ZM32.5 19.2271L42.6457 24.198L32.5 29.7227L22.3543 24.198L32.5 19.2271ZM20 27.4705L30.5 33.1882V44.8136L20 39.7447V27.4705Z" stroke="#88304F" stroke-width="4"/>
<path d="M33.5 46.4068V32.5941L46 25.7874V40.3723L33.5 46.4068ZM32.5 18.1136L44.8229 24.1511L32.5 30.8614L20.1771 24.1511L32.5 18.1136ZM19 25.7874L31.5 32.5941V46.4068L19 40.3723V25.7874Z" stroke="white" stroke-width="2"/>
<circle cx="33" cy="33" r="32.4211" stroke="#FF005A" stroke-width="1.15789"/>
<circle cx="32.9999" cy="33.0004" r="25.4737" stroke="#FF005A" stroke-width="1.15789"/>
<circle cx="32.9998" cy="33.0003" r="28.9474" stroke="#88304F" stroke-width="5.78947"/>
</svg>
