<svg width="66" height="66" viewBox="0 0 66 66" fill="none" xmlns="http://www.w3.org/2000/svg">
<circle cx="33" cy="33" r="32.4075" stroke="#9B3CD4" stroke-width="1.18504"/>
<circle cx="33.0016" cy="33.0001" r="25.4601" stroke="#9B3CD4" stroke-width="1.18504"/>
<circle cx="33.0005" cy="33.0001" r="28.8795" stroke="#5C2D78" stroke-width="5.92521"/>
<path d="M28.0522 16.018L30.8598 23.1369C31.0408 23.5959 31.4041 23.9592 31.8631 24.1402L38.982 26.9478C39.483 27.1454 39.483 27.8546 38.982 28.0522L31.8631 30.8598C31.4041 31.0408 31.0408 31.4041 30.8598 31.8631L28.0522 38.982C27.8546 39.483 27.1454 39.483 26.9478 38.982L24.1402 31.8631C23.9592 31.4041 23.5959 31.0408 23.1369 30.8598L16.018 28.0522C15.517 27.8546 15.517 27.1454 16.018 26.9478L23.1369 24.1402C23.5959 23.9592 23.9592 23.5959 24.1402 23.1369L26.9478 16.018C27.1454 15.517 27.8546 15.517 28.0522 16.018Z" stroke="white" stroke-width="1.1872"/>
<path d="M42.3808 32.0814L44.3171 36.991C44.442 37.3075 44.6925 37.558 45.009 37.6829L49.9186 39.6192C50.2642 39.7555 50.2642 40.2445 49.9186 40.3808L45.009 42.3171C44.6925 42.442 44.442 42.6925 44.3171 43.009L42.3808 47.9186C42.2445 48.2642 41.7555 48.2642 41.6192 47.9186L39.6829 43.009C39.558 42.6925 39.3075 42.442 38.991 42.3171L34.0814 40.3808C33.7358 40.2445 33.7358 39.7555 34.0814 39.6192L38.991 37.6829C39.3075 37.558 39.558 37.3075 39.6829 36.991L41.6192 32.0814C41.7555 31.7358 42.2445 31.7358 42.3808 32.0814Z" stroke="white" stroke-width="0.818756"/>
</svg>
