<svg width="66" height="66" viewBox="0 0 66 66" fill="none" xmlns="http://www.w3.org/2000/svg">
<circle cx="33" cy="33" r="32.4211" stroke="#F85353" stroke-width="1.15789"/>
<circle cx="33.0001" cy="32.9999" r="25.4737" stroke="#F85353" stroke-width="1.15789"/>
<circle cx="33.0001" cy="33.0001" r="28.9474" stroke="#873737" stroke-width="5.78947"/>
<circle cx="33.5791" cy="34.737" r="4.05263" stroke="white" stroke-width="1.15789"/>
<rect x="32.4213" y="38.2104" width="2.31579" height="3.47368" fill="white"/>
<rect x="22.5791" y="24.8949" width="22" height="22" rx="4.05263" stroke="white" stroke-width="1.15789"/>
<mask id="path-7-outside-1_125_117" maskUnits="userSpaceOnUse" x="26.3672" y="17.1024" width="15.0181" height="9.03026" fill="black">
<rect fill="white" x="26.3672" y="17.1024" width="15.0181" height="9.03026"/>
<path d="M27.8016 24.3397C27.7985 22.8041 28.4055 21.3301 29.4892 20.2421C30.5728 19.154 32.0443 18.541 33.58 18.5379C35.1156 18.5348 36.5896 19.1419 37.6776 20.2256C38.7656 21.3092 39.3786 22.7807 39.3817 24.3163L33.5916 24.328L27.8016 24.3397Z"/>
</mask>
<path d="M27.8016 24.3397C27.7985 22.8041 28.4055 21.3301 29.4892 20.2421C30.5728 19.154 32.0443 18.541 33.58 18.5379C35.1156 18.5348 36.5896 19.1419 37.6776 20.2256C38.7656 21.3092 39.3786 22.7807 39.3817 24.3163L33.5916 24.328L27.8016 24.3397Z" stroke="white" stroke-width="2.31579" mask="url(#path-7-outside-1_125_117)"/>
</svg>
